<?xml version="1.0" standalone="no"?>
<!DOCTYPE svg PUBLIC "-//W3C//DTD SVG 20010904//EN"
 "http://www.w3.org/TR/2001/REC-SVG-20010904/DTD/svg10.dtd">
<svg version="1.0" xmlns="http://www.w3.org/2000/svg"
 width="256.000000pt" height="256.000000pt" viewBox="0 0 256.000000 256.000000"
 preserveAspectRatio="xMidYMid meet">
<metadata>
Created by potrace 1.11, written by Peter Selinger 2001-2013
</metadata>
<g transform="translate(0.000000,256.000000) scale(0.100000,-0.100000)"
fill="#000000" stroke="none">
<path d="M647 2244 c-1 -1 -34 -4 -72 -7 -74 -5 -127 -28 -176 -73 -70 -66
-100 -209 -54 -258 33 -35 72 -42 246 -40 l155 1 0 -350 c-1 -300 -3 -351 -16
-358 -8 -5 -37 -19 -65 -31 -100 -45 -194 -161 -225 -278 -15 -55 -15 -165 -1
-202 6 -16 8 -28 6 -28 -14 0 59 -121 97 -161 93 -100 167 -130 333 -135 137
-4 164 2 220 51 85 74 157 67 259 -27 32 -30 102 -34 152 -9 24 11 44 24 44
28 0 15 66 52 102 57 48 7 80 -5 137 -53 64 -54 153 -66 194 -28 6 7 36 32 65
56 93 76 86 5 85 866 l0 760 -22 50 c-50 112 -132 161 -276 164 -105 3 -1186
7 -1188 5z m1290 -127 c18 -9 45 -34 60 -54 l28 -36 1 -741 c1 -408 -2 -749
-5 -758 -3 -9 -30 -38 -60 -63 -53 -45 -54 -46 -79 -29 -15 10 -35 25 -46 35
-53 50 -169 73 -242 49 -40 -13 -103 -55 -117 -77 -14 -22 -49 -14 -93 22 -43
35 -78 53 -124 62 -13 2 -25 5 -26 6 -1 1 9 35 22 75 19 59 23 89 20 155 -2
45 -9 94 -15 110 -6 15 -9 28 -8 28 1 1 139 3 307 4 168 1 315 5 327 9 12 4
25 15 28 25 7 23 -11 71 -27 72 -7 0 -167 2 -355 2 l-342 2 -38 36 c-21 20
-49 43 -62 52 -22 15 6 16 384 16 369 0 409 2 426 17 24 22 24 49 1 72 -17 17
-45 19 -464 18 -472 -1 -486 -2 -475 -48 4 -16 0 -17 -31 -12 -21 3 -46 7 -57
8 -20 3 -20 11 -21 437 -2 362 -4 441 -17 476 -9 22 -14 43 -12 45 2 1 246 3
542 2 482 0 541 -2 570 -17z m-1266 -10 c40 -26 85 -105 68 -122 -6 -6 -70
-10 -159 -11 l-150 -1 0 26 c0 26 21 64 52 95 43 42 136 49 189 13z"/>
<path d="M1125 1922 c-2 -2 -25 -4 -51 -4 -42 0 -52 -4 -81 -35 -36 -38 -36
-33 -33 -298 2 -187 14 -199 212 -198 210 1 212 3 214 258 2 194 -5 233 -48
257 -20 11 -204 29 -213 20z m147 -111 c4 -1 6 -72 5 -158 l-2 -158 -102 -1
c-99 -2 -103 -1 -104 20 -5 112 0 289 9 295 8 5 160 6 194 2z"/>
<path d="M1637 1920 c-100 -4 -121 -8 -132 -23 -17 -23 -11 -55 11 -72 26 -18
365 -15 387 4 21 17 22 40 2 68 -18 25 -81 31 -268 23z"/>
<path d="M1511 1693 c-21 -23 -21 -53 -1 -73 21 -21 24 -21 245 -21 150 0 142
-2 155 30 11 28 2 68 -18 72 -4 1 -88 3 -188 4 -139 1 -183 -2 -193 -12z"/>
<path d="M1531 1487 c-39 -10 -51 -52 -22 -80 18 -19 34 -20 183 -22 90 0 175
3 190 8 46 15 49 79 5 93 -29 10 -319 11 -356 1z"/>
</g>
</svg>
